<mxfile host="app.diagrams.net" agent="Mozilla/5.0 (Windows NT 10.0; Win64; x64) AppleWebKit/537.36 (KHTML, like Gecko) Chrome/128.0.0.0 Safari/537.36 Edg/128.0.0.0" version="24.7.15">
  <diagram name="Страница — 1" id="YUVXSCBwJUpuNjFyxesY">
    <mxGraphModel dx="1155" dy="659" grid="1" gridSize="10" guides="1" tooltips="1" connect="1" arrows="1" fold="1" page="1" pageScale="1" pageWidth="827" pageHeight="1169" math="0" shadow="0">
      <root>
        <mxCell id="0" />
        <mxCell id="1" parent="0" />
        <mxCell id="wa9o9G0RywKdAa4oKemP-1" value="&lt;font style=&quot;font-size: 13px;&quot;&gt;Формирование расписания руководителя по пению&lt;/font&gt;" style="rounded=0;whiteSpace=wrap;html=1;" parent="1" vertex="1">
          <mxGeometry x="310" y="90" width="230" height="90" as="geometry" />
        </mxCell>
        <mxCell id="wa9o9G0RywKdAa4oKemP-3" value="" style="endArrow=classic;html=1;rounded=0;entryX=0.5;entryY=0;entryDx=0;entryDy=0;" parent="1" target="wa9o9G0RywKdAa4oKemP-1" edge="1">
          <mxGeometry width="50" height="50" relative="1" as="geometry">
            <mxPoint x="425" y="40" as="sourcePoint" />
            <mxPoint x="420" y="120" as="targetPoint" />
          </mxGeometry>
        </mxCell>
        <mxCell id="wa9o9G0RywKdAa4oKemP-5" value="Закон об образовании" style="edgeLabel;html=1;align=center;verticalAlign=middle;resizable=0;points=[];" parent="wa9o9G0RywKdAa4oKemP-3" vertex="1" connectable="0">
          <mxGeometry x="-0.3127" relative="1" as="geometry">
            <mxPoint y="-30" as="offset" />
          </mxGeometry>
        </mxCell>
        <mxCell id="wa9o9G0RywKdAa4oKemP-10" value="" style="endArrow=classic;html=1;rounded=0;exitX=1;exitY=0.5;exitDx=0;exitDy=0;" parent="1" edge="1">
          <mxGeometry width="50" height="50" relative="1" as="geometry">
            <mxPoint x="540" y="134.8" as="sourcePoint" />
            <mxPoint x="670" y="134.8" as="targetPoint" />
          </mxGeometry>
        </mxCell>
        <mxCell id="wa9o9G0RywKdAa4oKemP-19" value="Готовое расписание" style="edgeLabel;html=1;align=center;verticalAlign=middle;resizable=0;points=[];" parent="wa9o9G0RywKdAa4oKemP-10" vertex="1" connectable="0">
          <mxGeometry x="-0.148" y="1" relative="1" as="geometry">
            <mxPoint x="5" y="-14" as="offset" />
          </mxGeometry>
        </mxCell>
        <mxCell id="wa9o9G0RywKdAa4oKemP-11" value="" style="endArrow=classic;html=1;rounded=0;entryX=0;entryY=0.75;entryDx=0;entryDy=0;" parent="1" target="wa9o9G0RywKdAa4oKemP-1" edge="1">
          <mxGeometry width="50" height="50" relative="1" as="geometry">
            <mxPoint x="150" y="158" as="sourcePoint" />
            <mxPoint x="310" y="158" as="targetPoint" />
          </mxGeometry>
        </mxCell>
        <mxCell id="wa9o9G0RywKdAa4oKemP-21" value="Список свободных аудиторий" style="edgeLabel;html=1;align=center;verticalAlign=middle;resizable=0;points=[];" parent="wa9o9G0RywKdAa4oKemP-11" vertex="1" connectable="0">
          <mxGeometry x="-0.1375" y="-1" relative="1" as="geometry">
            <mxPoint x="11" y="-19" as="offset" />
          </mxGeometry>
        </mxCell>
        <mxCell id="wa9o9G0RywKdAa4oKemP-12" value="" style="endArrow=classic;html=1;rounded=0;entryX=0;entryY=0.25;entryDx=0;entryDy=0;" parent="1" target="wa9o9G0RywKdAa4oKemP-1" edge="1">
          <mxGeometry width="50" height="50" relative="1" as="geometry">
            <mxPoint x="150" y="113" as="sourcePoint" />
            <mxPoint x="390" y="170" as="targetPoint" />
          </mxGeometry>
        </mxCell>
        <mxCell id="wa9o9G0RywKdAa4oKemP-20" value="Рабочее время руководителя" style="edgeLabel;html=1;align=center;verticalAlign=middle;resizable=0;points=[];" parent="wa9o9G0RywKdAa4oKemP-12" vertex="1" connectable="0">
          <mxGeometry x="-0.1499" y="1" relative="1" as="geometry">
            <mxPoint x="12" y="-12" as="offset" />
          </mxGeometry>
        </mxCell>
        <mxCell id="wa9o9G0RywKdAa4oKemP-13" value="" style="endArrow=classic;html=1;rounded=0;entryX=0.114;entryY=0.988;entryDx=0;entryDy=0;entryPerimeter=0;" parent="1" target="wa9o9G0RywKdAa4oKemP-1" edge="1">
          <mxGeometry width="50" height="50" relative="1" as="geometry">
            <mxPoint x="336" y="240" as="sourcePoint" />
            <mxPoint x="390" y="170" as="targetPoint" />
          </mxGeometry>
        </mxCell>
        <mxCell id="wa9o9G0RywKdAa4oKemP-18" value="Заместитель директора&lt;br&gt;&amp;nbsp;по учебной работе" style="edgeLabel;html=1;align=center;verticalAlign=middle;resizable=0;points=[];" parent="wa9o9G0RywKdAa4oKemP-13" vertex="1" connectable="0">
          <mxGeometry x="-0.7613" y="1" relative="1" as="geometry">
            <mxPoint x="5" y="27" as="offset" />
          </mxGeometry>
        </mxCell>
        <mxCell id="wa9o9G0RywKdAa4oKemP-15" value="" style="endArrow=classic;html=1;rounded=0;entryX=0.889;entryY=0.988;entryDx=0;entryDy=0;entryPerimeter=0;" parent="1" target="wa9o9G0RywKdAa4oKemP-1" edge="1">
          <mxGeometry width="50" height="50" relative="1" as="geometry">
            <mxPoint x="514" y="240" as="sourcePoint" />
            <mxPoint x="390" y="170" as="targetPoint" />
          </mxGeometry>
        </mxCell>
        <mxCell id="wa9o9G0RywKdAa4oKemP-16" value="Руководитель&amp;nbsp;&lt;div&gt;по пению&lt;/div&gt;" style="edgeLabel;html=1;align=center;verticalAlign=middle;resizable=0;points=[];" parent="wa9o9G0RywKdAa4oKemP-15" vertex="1" connectable="0">
          <mxGeometry x="-0.2548" relative="1" as="geometry">
            <mxPoint y="43" as="offset" />
          </mxGeometry>
        </mxCell>
        <mxCell id="QQWLQKuAl-H5catXo-OG-1" value="Заместитель директора&lt;br&gt;по учебной работе" style="shape=umlActor;verticalLabelPosition=bottom;verticalAlign=top;html=1;outlineConnect=0;" vertex="1" parent="1">
          <mxGeometry x="150" y="360" width="30" height="60" as="geometry" />
        </mxCell>
        <mxCell id="QQWLQKuAl-H5catXo-OG-3" value="Контроль за учебной нагрузкой" style="ellipse;whiteSpace=wrap;html=1;" vertex="1" parent="1">
          <mxGeometry x="250" y="405" width="130" height="60" as="geometry" />
        </mxCell>
        <mxCell id="QQWLQKuAl-H5catXo-OG-4" value="Составление расписания" style="ellipse;whiteSpace=wrap;html=1;" vertex="1" parent="1">
          <mxGeometry x="250" y="330" width="130" height="60" as="geometry" />
        </mxCell>
        <mxCell id="QQWLQKuAl-H5catXo-OG-7" value="" style="endArrow=classic;html=1;rounded=0;entryX=0;entryY=0.5;entryDx=0;entryDy=0;" edge="1" parent="1" source="QQWLQKuAl-H5catXo-OG-1" target="QQWLQKuAl-H5catXo-OG-4">
          <mxGeometry width="50" height="50" relative="1" as="geometry">
            <mxPoint x="80" y="515" as="sourcePoint" />
            <mxPoint x="130" y="465" as="targetPoint" />
          </mxGeometry>
        </mxCell>
        <mxCell id="QQWLQKuAl-H5catXo-OG-8" value="" style="endArrow=classic;html=1;rounded=0;entryX=0;entryY=0.5;entryDx=0;entryDy=0;" edge="1" parent="1" source="QQWLQKuAl-H5catXo-OG-1" target="QQWLQKuAl-H5catXo-OG-3">
          <mxGeometry width="50" height="50" relative="1" as="geometry">
            <mxPoint x="80" y="515" as="sourcePoint" />
            <mxPoint x="130" y="465" as="targetPoint" />
          </mxGeometry>
        </mxCell>
        <mxCell id="QQWLQKuAl-H5catXo-OG-11" style="edgeStyle=orthogonalEdgeStyle;rounded=0;orthogonalLoop=1;jettySize=auto;html=1;entryX=0.5;entryY=0;entryDx=0;entryDy=0;" edge="1" parent="1" source="QQWLQKuAl-H5catXo-OG-14" target="QQWLQKuAl-H5catXo-OG-16">
          <mxGeometry relative="1" as="geometry">
            <mxPoint x="415" y="650" as="targetPoint" />
            <Array as="points">
              <mxPoint x="415" y="640" />
              <mxPoint x="195" y="640" />
            </Array>
          </mxGeometry>
        </mxCell>
        <mxCell id="QQWLQKuAl-H5catXo-OG-12" style="edgeStyle=orthogonalEdgeStyle;rounded=0;orthogonalLoop=1;jettySize=auto;html=1;entryX=0.5;entryY=0;entryDx=0;entryDy=0;" edge="1" parent="1" source="QQWLQKuAl-H5catXo-OG-14" target="QQWLQKuAl-H5catXo-OG-18">
          <mxGeometry relative="1" as="geometry" />
        </mxCell>
        <mxCell id="QQWLQKuAl-H5catXo-OG-13" style="edgeStyle=orthogonalEdgeStyle;rounded=0;orthogonalLoop=1;jettySize=auto;html=1;entryX=0.5;entryY=0;entryDx=0;entryDy=0;" edge="1" parent="1" source="QQWLQKuAl-H5catXo-OG-14" target="QQWLQKuAl-H5catXo-OG-20">
          <mxGeometry relative="1" as="geometry">
            <Array as="points">
              <mxPoint x="415" y="640" />
              <mxPoint x="615" y="640" />
            </Array>
          </mxGeometry>
        </mxCell>
        <mxCell id="QQWLQKuAl-H5catXo-OG-14" value="Формирование расписания руководителя по пению" style="rounded=0;whiteSpace=wrap;html=1;" vertex="1" parent="1">
          <mxGeometry x="330" y="550" width="170" height="70" as="geometry" />
        </mxCell>
        <mxCell id="QQWLQKuAl-H5catXo-OG-15" style="edgeStyle=orthogonalEdgeStyle;rounded=0;orthogonalLoop=1;jettySize=auto;html=1;entryX=0.5;entryY=0;entryDx=0;entryDy=0;" edge="1" parent="1" source="QQWLQKuAl-H5catXo-OG-16" target="QQWLQKuAl-H5catXo-OG-22">
          <mxGeometry relative="1" as="geometry" />
        </mxCell>
        <mxCell id="QQWLQKuAl-H5catXo-OG-16" value="Изучение текущего расписания" style="rounded=0;whiteSpace=wrap;html=1;" vertex="1" parent="1">
          <mxGeometry x="110" y="670" width="170" height="70" as="geometry" />
        </mxCell>
        <mxCell id="QQWLQKuAl-H5catXo-OG-17" style="edgeStyle=orthogonalEdgeStyle;rounded=0;orthogonalLoop=1;jettySize=auto;html=1;entryX=0.5;entryY=0;entryDx=0;entryDy=0;" edge="1" parent="1" source="QQWLQKuAl-H5catXo-OG-18" target="QQWLQKuAl-H5catXo-OG-24">
          <mxGeometry relative="1" as="geometry" />
        </mxCell>
        <mxCell id="QQWLQKuAl-H5catXo-OG-18" value="Составление графика работы" style="rounded=0;whiteSpace=wrap;html=1;" vertex="1" parent="1">
          <mxGeometry x="330" y="670" width="170" height="70" as="geometry" />
        </mxCell>
        <mxCell id="QQWLQKuAl-H5catXo-OG-19" style="edgeStyle=orthogonalEdgeStyle;rounded=0;orthogonalLoop=1;jettySize=auto;html=1;entryX=0.5;entryY=0;entryDx=0;entryDy=0;" edge="1" parent="1" source="QQWLQKuAl-H5catXo-OG-20" target="QQWLQKuAl-H5catXo-OG-26">
          <mxGeometry relative="1" as="geometry" />
        </mxCell>
        <mxCell id="QQWLQKuAl-H5catXo-OG-20" value="Информирование" style="rounded=0;whiteSpace=wrap;html=1;" vertex="1" parent="1">
          <mxGeometry x="530" y="670" width="170" height="70" as="geometry" />
        </mxCell>
        <mxCell id="QQWLQKuAl-H5catXo-OG-21" style="edgeStyle=orthogonalEdgeStyle;rounded=0;orthogonalLoop=1;jettySize=auto;html=1;entryX=0.5;entryY=0;entryDx=0;entryDy=0;" edge="1" parent="1" source="QQWLQKuAl-H5catXo-OG-22" target="QQWLQKuAl-H5catXo-OG-25">
          <mxGeometry relative="1" as="geometry" />
        </mxCell>
        <mxCell id="QQWLQKuAl-H5catXo-OG-22" value="Изучение списка свободных аудиторий" style="rounded=0;whiteSpace=wrap;html=1;" vertex="1" parent="1">
          <mxGeometry x="110" y="780" width="170" height="70" as="geometry" />
        </mxCell>
        <mxCell id="QQWLQKuAl-H5catXo-OG-24" value="Определение рабочих дней и выходных" style="rounded=0;whiteSpace=wrap;html=1;" vertex="1" parent="1">
          <mxGeometry x="330" y="780" width="170" height="70" as="geometry" />
        </mxCell>
        <mxCell id="QQWLQKuAl-H5catXo-OG-25" value="Определение классов, с которыми будет заниматься руководитель" style="rounded=0;whiteSpace=wrap;html=1;" vertex="1" parent="1">
          <mxGeometry x="110" y="890" width="170" height="70" as="geometry" />
        </mxCell>
        <mxCell id="QQWLQKuAl-H5catXo-OG-26" value="Оповещение руководителей и учеников о новом расписании" style="rounded=0;whiteSpace=wrap;html=1;" vertex="1" parent="1">
          <mxGeometry x="530" y="780" width="170" height="70" as="geometry" />
        </mxCell>
        <mxCell id="QQWLQKuAl-H5catXo-OG-28" value="Руководитель &lt;br&gt;по пению" style="shape=umlActor;verticalLabelPosition=bottom;verticalAlign=top;html=1;outlineConnect=0;" vertex="1" parent="1">
          <mxGeometry x="420" y="360" width="30" height="60" as="geometry" />
        </mxCell>
        <mxCell id="QQWLQKuAl-H5catXo-OG-30" value="Получение расписания" style="ellipse;whiteSpace=wrap;html=1;" vertex="1" parent="1">
          <mxGeometry x="530" y="330" width="130" height="60" as="geometry" />
        </mxCell>
        <mxCell id="QQWLQKuAl-H5catXo-OG-31" value="" style="endArrow=classic;html=1;rounded=0;entryX=0;entryY=0.5;entryDx=0;entryDy=0;" edge="1" parent="1" source="QQWLQKuAl-H5catXo-OG-28" target="QQWLQKuAl-H5catXo-OG-30">
          <mxGeometry width="50" height="50" relative="1" as="geometry">
            <mxPoint x="350" y="515" as="sourcePoint" />
            <mxPoint x="400" y="465" as="targetPoint" />
          </mxGeometry>
        </mxCell>
        <mxCell id="QQWLQKuAl-H5catXo-OG-33" value="Предоставление рабочего времени" style="ellipse;whiteSpace=wrap;html=1;" vertex="1" parent="1">
          <mxGeometry x="530" y="405" width="130" height="60" as="geometry" />
        </mxCell>
        <mxCell id="QQWLQKuAl-H5catXo-OG-35" value="" style="endArrow=classic;html=1;rounded=0;entryX=0;entryY=0.5;entryDx=0;entryDy=0;" edge="1" parent="1" target="QQWLQKuAl-H5catXo-OG-33">
          <mxGeometry width="50" height="50" relative="1" as="geometry">
            <mxPoint x="450" y="390" as="sourcePoint" />
            <mxPoint x="530" y="385" as="targetPoint" />
          </mxGeometry>
        </mxCell>
      </root>
    </mxGraphModel>
  </diagram>
</mxfile>
